<svg viewBox="0 0 96 96" xmlns="http://www.w3.org/2000/svg" xmlns:xlink="http://www.w3.org/1999/xlink" id="Icons_Storytelling_M" overflow="hidden"><g id="Icons"><path d="M85.1277 47.7922 85.113 47.7922C84.4286 47.7976 83.5546 47.8198 82.5304 47.8735L82.16 43.916C82.16 43.916 81.7906 43.8894 81.1029 43.8894 80.4112 43.8894 79.3729 43.9251 78.0868 44.0352L77.515 37.41C76.2461 37.2203 74.9639 37.133 73.681 37.149 64.0406 37.1649 54.8305 41.1423 48.2091 48.149L47.7914 48.149C41.1696 41.1426 31.9596 37.1653 22.3192 37.149 21.0363 37.1329 19.7541 37.2202 18.4852 37.41L17.9136 44.0348C16.6272 43.9248 15.5891 43.889 14.8977 43.889 14.2103 43.889 13.8405 43.9156 13.8405 43.9156L13.4705 47.8731C12.4462 47.8194 11.572 47.7972 10.8877 47.7918L10.8729 47.7918C9.88944 47.7916 9.06778 48.5407 8.9773 49.52L6.1028 80.5574C6.00212 81.6061 6.77061 82.5378 7.81927 82.6385 7.87934 82.6442 7.93965 82.6472 8 82.6472 8.0208 82.6472 8.0416 82.6472 8.0625 82.6463 8.6416 82.6277 9.3248 82.6148 10.101 82.6148 17.1016 82.6148 31.5647 83.6822 43.539 91.5048 44.166 91.9207 44.9007 92.1448 45.6531 92.1498L50.3982 92.1498C51.12 92.1455 51.8262 91.939 52.4366 91.5536 65.0615 83.6867 79.2534 82.6152 86.0496 82.6152 86.7627 82.6152 87.3949 82.6269 87.9348 82.644L87.9888 82.6449C89.0452 82.6474 89.9035 81.7931 89.906 80.7367 89.9062 80.676 89.9034 80.6153 89.8978 80.5549L87.0229 49.52C86.9322 48.541 86.1109 47.7922 85.1277 47.7922ZM44.632 89.83C32.3584 81.8122 17.7288 80.615 10.1005 80.615 9.4205 80.615 8.7488 80.625 8.1033 80.6443L10.9606 49.793C11.5634 49.7988 12.3491 49.8193 13.2832 49.8684L10.6069 78.459C10.6069 78.459 10.9299 78.4426 11.5269 78.4426 15.4343 78.4426 31.0774 79.148 44.6729 89.7626 44.7668 89.8359 44.9667 89.9626 44.9542 89.9839 44.8385 89.9522 44.7294 89.9001 44.632 89.83ZM46.9837 89.0551C33.8949 78.2484 18.7883 76.6425 12.8026 76.4624L15.6635 45.9C16.2307 45.9153 16.9335 45.9527 17.7422 46.0218L15.3759 73.4451C15.3759 73.4451 33.8346 75.6885 47 88.7691L47 89.0473C47 89.0589 46.9926 89.0623 46.9837 89.0549ZM46.9837 86.0059C36.0624 75.9993 22.4987 72.6811 17.5285 71.7649L20.337 39.2177C20.8751 39.1794 21.5438 39.1496 22.3194 39.1496 31.5138 39.1638 40.2892 42.9965 46.5481 49.7317L47 50.209 47 85.999C47 86.0108 46.9925 86.0139 46.9835 86.0057ZM49 50.21 49.4524 49.7322C55.7111 42.9965 64.4866 39.1635 73.6812 39.1494 74.4568 39.1494 75.1255 39.1794 75.6635 39.2175L78.472 71.7647C73.502 72.6809 59.9378 75.9991 49.0165 86.0057 49.0075 86.0139 49 86.0108 49 85.9986ZM49 89.0478 49 88.7696C62.1654 75.689 80.6245 73.4456 80.6245 73.4456L78.2581 46.022C79.0664 45.9529 79.7695 45.9155 80.3369 45.9002L83.1978 76.4624C77.2122 76.6424 62.1056 78.2479 49.0163 89.0549 49.0074 89.0623 49 89.0589 49 89.0473ZM86.0491 80.6153C78.6391 80.6153 64.2817 81.8153 51.3777 89.8567 51.2532 89.9424 51.1152 90.0067 50.9694 90.0467 50.9474 90.0134 51.1907 89.8677 51.3011 89.7814 64.9035 79.1475 80.5648 78.4432 84.4734 78.4434 85.0698 78.4434 85.3934 78.4598 85.3934 78.4598L82.717 49.8684C83.651 49.8193 84.437 49.7984 85.0397 49.793L87.8969 80.6414C87.3615 80.6255 86.7422 80.6148 86.0491 80.6148Z"/><path d="M73.9136 14.1494C74.6629 11.5138 76.5093 9.32757 78.9823 8.1477 76.5101 6.96842 74.6639 4.78365 73.9136 2.1494 73.1655 4.78486 71.3186 6.97045 68.8448 8.1477 71.3194 9.32554 73.1665 11.5126 73.9136 14.1494ZM73.9148 6.5225C74.3505 7.11007 74.8417 7.65441 75.3815 8.148 74.8416 8.64163 74.3505 9.18604 73.9148 9.7737 73.4792 9.18592 72.988 8.6415 72.4479 8.148 72.9879 7.65452 73.4792 7.11017 73.9148 6.5225Z"/><path d="M9.9313 36.1494C10.6806 33.5137 12.5269 31.3275 15 30.1477 12.5278 28.9685 10.6816 26.7837 9.9313 24.1494 9.18312 26.7849 7.33617 28.9705 4.8624 30.1477 7.33704 31.3255 9.18416 33.5126 9.9313 36.1494ZM9.9325 28.5227C10.3682 29.1102 10.8594 29.6545 11.3992 30.148 10.8593 30.6416 10.3681 31.186 9.9325 31.7737 9.49694 31.1859 9.0057 30.6415 8.4656 30.148 9.00554 29.6545 9.49677 29.1102 9.9325 28.5227Z"/><path d="M19.776 14.1494C20.4005 11.9531 21.9391 10.1313 24 9.1482 21.9399 8.16532 20.4014 6.34463 19.776 4.1494 19.1525 6.34561 17.6134 8.16697 15.552 9.1482 17.6142 10.1297 19.1534 11.9521 19.776 14.1494ZM19.777 8.3367C20.0076 8.62074 20.2539 8.89166 20.5148 9.1482 20.2539 9.40489 20.0076 9.67598 19.777 9.9602 19.5464 9.67597 19.3001 9.40488 19.0392 9.1482 19.3001 8.89166 19.5464 8.62074 19.777 8.3367Z"/><path d="M85.776 30.1494C86.4005 27.9531 87.9391 26.1313 90 25.1482 87.9399 24.1653 86.4014 22.3446 85.776 20.1494 85.1525 22.3456 83.6134 24.167 81.552 25.1482 83.6142 26.1297 85.1534 27.9521 85.776 30.1494ZM85.777 24.3367C86.0076 24.6207 86.2539 24.8917 86.5148 25.1482 86.2539 25.4049 86.0076 25.676 85.777 25.9602 85.5464 25.676 85.3001 25.4049 85.0392 25.1482 85.3001 24.8917 85.5464 24.6207 85.777 24.3367Z"/><path d="M48 9.1494C48.5523 9.1494 49 8.70168 49 8.1494L49 4.1494C49 3.59712 48.5523 3.1494 48 3.1494 47.4477 3.1494 47 3.59712 47 4.1494L47 8.1494C47 8.70168 47.4477 9.1494 48 9.1494Z"/><path d="M48 39.1494C48.5523 39.1494 49 38.7017 49 38.1494L49 28.1494C49 27.5971 48.5523 27.1494 48 27.1494 47.4477 27.1494 47 27.5971 47 28.1494L47 38.1494C47 38.7017 47.4477 39.1494 48 39.1494Z"/><path d="M48 23.1494C48.5523 23.1494 49 22.7017 49 22.1494L49 14.1494C49 13.5971 48.5523 13.1494 48 13.1494 47.4477 13.1494 47 13.5971 47 14.1494L47 22.1494C47 22.7017 47.4477 23.1494 48 23.1494Z"/><path d="M61.7607 18.4461C62.3003 18.5639 62.8332 18.222 62.951 17.6825 62.9511 17.6822 62.9511 17.682 62.9512 17.6817L64.2266 11.8186C64.344 11.2787 64.0016 10.7458 63.4617 10.6284 62.9218 10.511 62.3889 10.8534 62.2715 11.3933L60.9961 17.2564C60.8787 17.7961 61.221 18.3287 61.7607 18.4461Z"/><path d="M58.7881 32.1267C59.327 32.2444 59.8593 31.9029 59.977 31.364 59.9772 31.3633 59.9773 31.3625 59.9775 31.3618L61.6768 23.5444C61.7941 23.0045 61.4515 22.4718 60.9117 22.3544 60.3718 22.2371 59.839 22.5797 59.7217 23.1196L58.0225 30.937C57.9052 31.4767 58.2477 32.0093 58.7874 32.1265 58.7876 32.1266 58.7879 32.1266 58.7881 32.1267Z"/><path d="M68.999 30.1494C69.328 30.1499 69.6362 29.9885 69.8232 29.7178L76.6432 19.8445C76.9571 19.3898 76.843 18.7668 76.3883 18.4529 75.9336 18.139 75.3106 18.2531 74.9967 18.7078L68.1767 28.5811C67.8628 29.0355 67.9768 29.6584 68.4312 29.9722 68.5981 30.0875 68.7961 30.1493 68.9989 30.1494Z"/><path d="M33.8984 21.59 36.0225 31.3617C36.1398 31.9016 36.6725 32.2441 37.2124 32.1268 37.7523 32.0095 38.0948 31.4768 37.9775 30.9369L35.8535 21.1652C35.7362 20.6253 35.2034 20.2827 34.6636 20.4 34.1237 20.5174 33.7811 21.0501 33.8984 21.59Z"/><path d="M32.624 15.7273C32.7414 16.2672 33.2743 16.6096 33.8142 16.4922 34.3541 16.3748 34.6965 15.8419 34.5791 15.302L33.7285 11.3933C33.6111 10.8534 33.0782 10.511 32.5383 10.6284 31.9984 10.7458 31.656 11.2787 31.7734 11.8186Z"/><path d="M19.6113 18.4534C19.1572 18.7674 19.0431 19.3899 19.3564 19.8445L26.1764 29.7178C26.4903 30.1724 27.1133 30.2865 27.5679 29.9727 28.0226 29.6588 28.1367 29.0357 27.8228 28.5811L21.0028 18.7078C20.689 18.2533 20.0662 18.1393 19.6117 18.4531 19.6116 18.4532 19.6114 18.4533 19.6113 18.4534Z"/></g></svg>